<svg id="can" xmlns="http://www.w3.org/2000/svg" viewBox="0 0 224 224">
  <defs>
    <style>
      .cls-1, .cls-3 {
        fill: #fff;
      }

      .cls-1, .cls-2, .cls-3 {
        stroke: #000;
        stroke-miterlimit: 10;
      }

      .cls-1 {
        stroke-width: 8px;
      }

      .cls-2 {
        fill: none;
        stroke-width: 7px;
      }

      .cls-3 {
        stroke-width: 5px;
      }
    </style>
  </defs>
  <title>can</title>
  <circle id="circle8" class="cls-1" cx="112" cy="112" r="108"/>
  <g id="body8">
    <polygon id="line" class="cls-2" points="69.5 55.5 23.5 113.5 84.5 163.5 133.5 104.5 69.5 55.5"/>
    <path id="line-2" data-name="line" class="cls-2" d="M72.89,56.42A6,6,0,0,0,75,59.66c11.11,8.84,81.78,65,84.54,66.84,1.85,1.24,9.16.07,10.79-4,1.21-3,.25-6-4.79-11C152.3,98.5,114.94,70.22,97,56.72c-5-3.8-8.54-6.43-9.53-7.22C82.5,45.5,69.76,43.89,72.89,56.42Z" transform="translate(-13 -13)"/>
    <path id="line-3" data-name="line" class="cls-2" d="M96.5,59.5s28-35,54-14-2,54-2,54" transform="translate(-13 -13)"/>
    <path id="line-4" data-name="line" class="cls-2" d="M69.5,81.5S28.1,68.18,51.3,107.84" transform="translate(-13 -13)"/>
    <polyline id="line-5" data-name="line" class="cls-2" points="112.09 130.28 152.5 135.5 151.5 147.5 101.96 142.48"/>
  </g>
  <g id="detail8">
    <path id="rain" class="cls-3" d="M168,177s-23,29,0,29S171,188,168,177Z" transform="translate(-13 -13)"/>
    <path id="rain-2" data-name="rain" class="cls-3" d="M100.62,111.34s-36.4,6.74-19.07,21.86S95.65,121.6,100.62,111.34Z" transform="translate(-13 -13)"/>
  </g>
</svg>
