<svg id="fence" xmlns="http://www.w3.org/2000/svg" viewBox="0 0 224 224">
  <defs>
    <style>
      .cls-1, .cls-3 {
        fill: #fff;
      }

      .cls-1, .cls-2, .cls-3, .cls-4 {
        stroke: #000;
        stroke-miterlimit: 10;
      }

      .cls-1 {
        stroke-width: 8px;
      }

      .cls-2, .cls-4 {
        fill: none;
      }

      .cls-2, .cls-3 {
        stroke-width: 6px;
      }

      .cls-4 {
        stroke-width: 5px;
      }
    </style>
  </defs>
  <title>fence</title>
  <circle id="circle2" class="cls-1" cx="112" cy="112" r="108"/>
  <g id="body2">
    <polygon id="bar4" class="cls-2" points="28 82 28 111 197 110 197 82 28 82"/>
    <polygon id="bar3" class="cls-2" points="28 132 28 161 197 160 197 132 28 132"/>
    <polygon id="bar2" class="cls-3" points="128.5 178.5 165.5 178.5 165 60 147 41 128 60 128.5 178.5"/>
    <polygon id="bar1" class="cls-3" points="59.5 178.5 96.5 178.5 96 60 78 41 59 60 59.5 178.5"/>
  </g>
  <g id="detail2">
    <circle id="circle6" class="cls-4" cx="78" cy="81" r="9.5"/>
    <circle id="circle5" class="cls-4" cx="78" cy="116" r="9.5"/>
    <circle id="circle4" class="cls-4" cx="78" cy="151" r="9.5"/>
    <circle id="circle3" class="cls-4" cx="147" cy="116" r="9.5"/>
    <circle id="circle2-2" data-name="circle2" class="cls-4" cx="147" cy="81" r="9.5"/>
    <circle id="circle1" class="cls-4" cx="147" cy="151" r="9.5"/>
  </g>
</svg>
