<svg id="magnifyingIcon" xmlns="http://www.w3.org/2000/svg" viewBox="0 0 582 582">
  <defs>
    <style>
      .cls-1 {
        fill: #fff;
        stroke: #ccc;
        stroke-miterlimit: 10;
        stroke-width: 8px;
      }
    </style>
  </defs>
  <title>magnifyingIcon</title>
  <circle id="outerCircle" class="cls-1" cx="291" cy="291" r="287"/>
  <g id="glass">
    <circle class="cls-1" cx="196.25" cy="204.57" r="92.16"/>
    <path class="cls-1" d="M366,341.82a58.32,58.32,0,0,1,0-82.5" transform="translate(-211 -96)"/>
    <path class="cls-1" d="M662.63,519a26.53,26.53,0,0,1-.17,37.41h0a26.53,26.53,0,0,1-37.41.17L458.36,389.86c-11.27-11.28,8.81-8.81,19.09-19.09h0c10.28-10.28,7.22-29.77,18.49-18.5Z" transform="translate(-211 -96)"/>
    <path class="cls-1" d="M495.94,427.44l-37.58-37.58c-11.27-11.28,8.81-8.81,19.09-19.09h0c10.28-10.28,7.22-29.77,18.49-18.5l37.59,37.59Z" transform="translate(-211 -96)"/>
  </g>
  <g id="details">
    <path id="details-2" data-name="details" class="cls-1" d="M366,341.82a58.32,58.32,0,0,1,0-82.5" transform="translate(-211 -96)"/>
  </g>
</svg>
